<svg xmlns="http://www.w3.org/2000/svg" width="195" height="64" viewBox="0 0 195 64" fill="none"><g id="ARTWORK"><g id="Group"><g id="Group_2"><path id="Vector" d="M22.3586 19.2021L0.189453 32.0004L22.3586 44.7987V19.2021Z" fill="#1F252E"></path><g id="Group_3"><path id="Vector_2" d="M44.5195 32V44.7983L55.6085 38.4035L44.5195 32Z" fill="#1F252E"></path><path id="Vector_3" d="M44.5195 44.7979V57.5961L55.6085 63.9996L66.6887 57.5961L44.5195 44.7979Z" fill="#1F252E"></path></g><path id="Vector_4" d="M22.3594 6.40347L33.4396 12.8069L44.5199 6.40347L33.431 0L22.3594 6.40347Z" fill="#F8E86C"></path><path id="Vector_5" d="M33.4396 12.8068L22.3594 6.40332V19.2016V44.7981L33.4396 51.2016V38.4033V12.8068Z" fill="#FAD121"></path><g id="Group_4"><path id="Vector_6" d="M33.4395 12.8068L33.4481 25.6051L44.5284 19.2016V6.40332L33.4395 12.8068Z" fill="#FAB314"></path><path id="Vector_7" d="M44.5284 57.5965V44.7983L44.5197 32L33.4395 38.4035V51.2017L44.5284 57.5965Z" fill="#FAB314"></path></g></g><g id="Group_5"><path id="Vector_8" d="M81.0477 11.0196C80.2668 11.0196 79.6334 10.768 79.1388 10.2734C78.6442 9.77884 78.3926 9.18014 78.3926 8.49467C78.3926 7.80921 78.6442 7.18448 79.1388 6.69858C79.6334 6.21268 80.2754 5.96973 81.0477 5.96973C81.7852 5.96973 82.4013 6.21268 82.9132 6.69858C83.4251 7.18448 83.6768 7.78318 83.6768 8.49467C83.6768 9.20617 83.4251 9.77884 82.9132 10.2734C82.4099 10.768 81.7852 11.0196 81.0477 11.0196ZM78.9392 13.0934H83.0867V29.3016H78.9392V13.0934Z" fill="#1F252E"></path><path id="Vector_9" d="M85.3876 13.0938H89.1446L89.4396 14.751C89.9603 14.1697 90.5937 13.7098 91.3399 13.3714C92.0861 13.033 92.893 12.8682 93.752 12.8682C95.0275 12.8682 96.1121 13.1371 97.0058 13.6751C97.8995 14.2131 98.5937 15.0027 99.0796 16.0265C99.5655 17.0504 99.8084 18.3259 99.8084 19.8356V29.302H95.6262V20.3909C95.6262 19.1415 95.3746 18.1957 94.88 17.571C94.3854 16.9463 93.6392 16.6339 92.6414 16.6339C91.6436 16.6339 90.854 16.9549 90.3247 17.5883C89.7954 18.2304 89.5264 19.1762 89.5264 20.4256V29.3107H85.3789V13.0938H85.3876Z" fill="#1F252E"></path><path id="Vector_10" d="M105.231 24.0178C105.361 24.5558 105.578 24.9723 105.899 25.2499C106.211 25.5276 106.567 25.7272 106.966 25.8486C107.366 25.9701 107.773 26.0309 108.181 26.0309C108.936 26.0309 109.535 25.8833 109.96 25.597C110.394 25.302 110.611 24.9289 110.611 24.4777C110.611 24.0873 110.463 23.7836 110.159 23.558C109.856 23.3324 109.474 23.1502 109.005 23.02C108.537 22.8899 108.051 22.7684 107.53 22.6643C106.949 22.5168 106.324 22.3432 105.665 22.161C105.005 21.9788 104.381 21.7098 103.799 21.3627C103.218 21.0157 102.732 20.5645 102.359 20.0178C101.977 19.4712 101.795 18.7684 101.795 17.9267C101.795 16.9115 102.064 16.0265 102.602 15.289C103.14 14.5428 103.903 13.9528 104.884 13.5189C105.864 13.0851 107.01 12.8682 108.303 12.8682C109.838 12.8682 111.131 13.1892 112.19 13.84C113.248 14.4907 114.012 15.4191 114.489 16.6252L110.862 17.6664C110.732 17.3627 110.541 17.1198 110.281 16.9202C110.021 16.7293 109.717 16.5818 109.361 16.4951C109.005 16.4083 108.641 16.3649 108.277 16.3649C107.652 16.3649 107.131 16.4864 106.723 16.738C106.316 16.9896 106.107 17.328 106.107 17.7619C106.107 18.0222 106.185 18.2304 106.333 18.3953C106.48 18.5601 106.697 18.6903 106.966 18.8031C107.235 18.9072 107.548 19.0113 107.903 19.0981C108.259 19.1849 108.658 19.2803 109.084 19.3931C109.752 19.5666 110.428 19.7662 111.105 19.9918C111.782 20.2174 112.415 20.5037 112.988 20.8508C113.561 21.1979 114.021 21.6578 114.368 22.2478C114.715 22.8291 114.906 23.5666 114.949 24.4517C114.949 25.4061 114.68 26.2651 114.142 27.0287C113.604 27.7922 112.823 28.4083 111.808 28.8595C110.793 29.3107 109.561 29.545 108.112 29.545C106.428 29.545 104.997 29.1892 103.817 28.4777C102.637 27.7662 101.864 26.6556 101.5 25.1371L105.231 24.0352V24.0178Z" fill="#1F252E"></path><path id="Vector_11" d="M119.2 11.0196C118.419 11.0196 117.786 10.768 117.291 10.2734C116.797 9.77884 116.545 9.18014 116.545 8.49467C116.545 7.80921 116.797 7.18448 117.291 6.69858C117.786 6.21268 118.428 5.96973 119.2 5.96973C119.938 5.96973 120.554 6.21268 121.066 6.69858C121.577 7.18448 121.829 7.78318 121.829 8.49467C121.829 9.20617 121.577 9.77884 121.066 10.2734C120.562 10.768 119.938 11.0196 119.2 11.0196ZM117.092 13.0934H121.239V29.3016H117.092V13.0934Z" fill="#1F252E"></path><path id="Vector_12" d="M135.66 13.0935H139.417V26.8983C139.417 28.7378 138.966 30.317 138.055 31.6445C137.144 32.9721 135.833 33.9959 134.115 34.7074C132.397 35.4189 130.341 35.7747 127.938 35.7747L127.287 32.2692C129.899 32.2259 131.886 31.766 133.239 30.8723C134.593 29.9872 135.261 28.7118 135.261 27.0458V26.9764L135.807 26.7855C135.287 27.5404 134.575 28.1825 133.664 28.7118C132.753 29.241 131.677 29.51 130.419 29.51C128.996 29.51 127.738 29.163 126.662 28.4688C125.586 27.7747 124.736 26.8115 124.12 25.5708C123.504 24.33 123.191 22.8636 123.191 21.1803C123.191 19.497 123.504 18.022 124.12 16.7725C124.736 15.523 125.586 14.5512 126.662 13.8744C127.747 13.189 128.996 12.8506 130.419 12.8506C131.157 12.8506 131.842 12.9547 132.476 13.1543C133.109 13.3625 133.673 13.6315 134.159 13.9612C134.645 14.2996 135.053 14.6727 135.374 15.0805L135.634 13.0675L135.66 13.0935ZM127.651 21.1977C127.651 22.5599 127.998 23.6532 128.701 24.4862C129.404 25.3191 130.341 25.7356 131.504 25.7356C132.172 25.7356 132.788 25.5534 133.352 25.1977C133.916 24.8419 134.376 24.3213 134.732 23.6272C135.087 22.933 135.269 22.1261 135.269 21.1977C135.269 20.2692 135.087 19.4016 134.732 18.7334C134.376 18.0653 133.907 17.5534 133.335 17.1977C132.762 16.8419 132.155 16.6597 131.504 16.6597C130.341 16.6597 129.404 17.0762 128.701 17.9092C127.998 18.7421 127.651 19.8354 127.651 21.1977Z" fill="#1F252E"></path><path id="Vector_13" d="M142.012 5.96973H146.159V14.6899C146.654 14.1519 147.279 13.7094 148.025 13.3797C148.771 13.0413 149.604 12.8765 150.532 12.8765C151.764 12.8765 152.832 13.1454 153.743 13.6834C154.654 14.2214 155.357 15.0109 155.869 16.0348C156.372 17.0587 156.632 18.3342 156.632 19.8439V29.3103H152.259V20.3992C152.259 19.1498 152.007 18.204 151.513 17.5793C151.018 16.9545 150.272 16.6422 149.274 16.6422C148.276 16.6422 147.487 16.9806 146.957 17.666C146.428 18.3515 146.159 19.3146 146.159 20.5641V29.319H142.012V5.96973Z" fill="#1F252E"></path><path id="Vector_14" d="M160.138 13.0936V8.55566H164.32V13.0936H167.921V16.7552H164.32V23.3322C164.32 24.1739 164.503 24.7726 164.867 25.111C165.231 25.4581 165.691 25.6403 166.247 25.6663C166.793 25.6836 167.357 25.6576 167.913 25.5708V29.137C166.915 29.3539 165.952 29.4147 165.014 29.3279C164.077 29.2411 163.236 28.9895 162.498 28.5643C161.761 28.1392 161.188 27.4971 160.763 26.6381C160.338 25.7704 160.129 24.6685 160.129 23.3322V16.7552H157.83V13.0936H160.129H160.138Z" fill="#1F252E"></path><path id="Vector_15" d="M80.3975 39.0803C80.3975 37.8916 80.5883 36.8851 80.9788 36.0695C81.3693 35.2539 81.9853 34.6465 82.8443 34.2734C83.6946 33.8916 84.84 33.7615 86.263 33.8656V36.0348C84.9701 35.9306 84.0677 36.1389 83.5732 36.6682C83.0786 37.1975 82.827 38.0044 82.827 39.0803V40.9892H86.3931V43.2625H82.827V57.1975H80.3975V43.2625H78.1328V40.9892H80.3975V39.0803Z" fill="#1F252E"></path><path id="Vector_16" d="M97.8726 57.1975L97.6817 54.2821C97.2305 55.2799 96.5624 56.0522 95.6687 56.5988C94.7836 57.1541 93.6556 57.4231 92.2934 57.4231C91.1307 57.4231 90.1329 57.2409 89.3086 56.8678C88.4843 56.5034 87.8595 55.9741 87.4083 55.2973C86.9572 54.6205 86.7402 53.8136 86.7402 52.8851C86.7402 51.5229 87.2435 50.4036 88.2674 49.5272C89.2825 48.6509 90.7489 48.1216 92.6752 47.922L97.6643 47.3667V46.0739C97.6643 45.1628 97.3259 44.434 96.6578 43.8873C95.9897 43.3407 95.0786 43.063 93.9333 43.063C92.788 43.063 91.8769 43.3233 91.1307 43.8439C90.3845 44.3645 89.8726 45.1107 89.5949 46.0825L87.391 45.3016C87.8248 43.8786 88.6144 42.7593 89.7771 41.9611C90.9311 41.1628 92.3454 40.7637 94.0114 40.7637C95.9376 40.7637 97.43 41.2582 98.4973 42.2387C99.5645 43.2192 100.102 44.5554 100.102 46.2387V57.1975H97.8639H97.8726ZM97.6817 49.4491L92.6578 50.0305C91.5732 50.1606 90.7576 50.4556 90.1936 50.9242C89.6296 51.3927 89.352 52.0001 89.352 52.755C89.352 53.5099 89.6296 54.1173 90.1762 54.5684C90.7229 55.0196 91.5211 55.2539 92.5624 55.2539C93.7511 55.2539 94.7229 55.0196 95.4778 54.5424C96.2326 54.0652 96.788 53.4231 97.1437 52.6162C97.4995 51.8092 97.6817 50.9242 97.6817 49.9784V49.4578V49.4491Z" fill="#1F252E"></path><path id="Vector_17" d="M110.151 57.4231C108.571 57.4231 107.192 57.076 106.003 56.3819C104.814 55.6878 103.895 54.7246 103.235 53.4838C102.576 52.2431 102.246 50.8027 102.246 49.1541C102.246 47.5055 102.576 46.0305 103.235 44.7637C103.895 43.4969 104.814 42.5164 106.003 41.8136C107.192 41.1107 108.571 40.7637 110.151 40.7637C111.817 40.7637 113.274 41.1455 114.524 41.9177C115.773 42.6812 116.684 43.7485 117.248 45.1107L115.01 45.8917C114.689 45.024 114.099 44.3385 113.24 43.8353C112.389 43.332 111.4 43.0717 110.272 43.0717C109.144 43.0717 108.216 43.3233 107.4 43.8179C106.593 44.3125 105.96 45.0153 105.517 45.9264C105.075 46.8374 104.849 47.9047 104.849 49.1368C104.849 50.9502 105.335 52.4079 106.307 53.4925C107.279 54.5858 108.571 55.1324 110.194 55.1324C111.296 55.1324 112.276 54.8808 113.144 54.3862C114.012 53.8917 114.645 53.2235 115.053 52.3732L117.257 53.1541C116.676 54.4904 115.756 55.5402 114.506 56.2951C113.248 57.05 111.791 57.4318 110.133 57.4318L110.151 57.4231Z" fill="#1F252E"></path><path id="Vector_18" d="M120.943 40.9891V36.4512H123.373V40.9891H127.685V43.2625H123.373V51.9826C123.373 52.9805 123.581 53.7006 124.006 54.1518C124.431 54.603 124.969 54.872 125.629 54.9588C126.288 55.0455 126.974 55.0455 127.685 54.9588V57.0672C126.843 57.2581 126.019 57.3188 125.203 57.2321C124.397 57.1453 123.668 56.9024 123.034 56.5032C122.392 56.1041 121.889 55.5401 121.507 54.8026C121.125 54.0651 120.943 53.128 120.943 51.9826V43.2625H118.514V40.9891H120.943Z" fill="#1F252E"></path><path id="Vector_19" d="M136.571 57.4229C135.035 57.4229 133.664 57.0845 132.458 56.4164C131.252 55.7483 130.298 54.7938 129.604 53.5444C128.91 52.3036 128.562 50.8285 128.562 49.1192C128.562 47.4099 128.91 45.9001 129.612 44.642C130.315 43.3925 131.278 42.4294 132.493 41.7526C133.717 41.0845 135.096 40.7461 136.623 40.7461C138.15 40.7461 139.539 41.0845 140.753 41.7526C141.977 42.4207 142.94 43.3838 143.643 44.6246C144.346 45.8654 144.693 47.3405 144.693 49.0498C144.693 50.7591 144.337 52.2689 143.625 53.527C142.914 54.7851 141.942 55.7396 140.71 56.4164C139.478 57.0845 138.098 57.4229 136.562 57.4229H136.571ZM136.536 55.1235C137.491 55.1235 138.385 54.9153 139.226 54.4901C140.068 54.065 140.753 53.4055 141.283 52.5118C141.812 51.6181 142.081 50.4728 142.081 49.0932C142.081 47.7136 141.821 46.5422 141.3 45.6572C140.779 44.7721 140.103 44.1214 139.278 43.6962C138.445 43.271 137.552 43.0628 136.606 43.0628C135.66 43.0628 134.766 43.271 133.951 43.6962C133.126 44.1214 132.467 44.7808 131.955 45.6745C131.443 46.5682 131.192 47.7136 131.192 49.0932C131.192 50.4728 131.443 51.6441 131.938 52.5292C132.432 53.4142 133.092 54.065 133.899 54.4901C134.706 54.9153 135.591 55.1235 136.536 55.1235Z" fill="#1F252E"></path><path id="Vector_20" d="M146.783 40.9894H149.022L149.152 43.3582C149.586 42.7768 150.106 42.2736 150.722 41.8658C151.339 41.458 152.015 41.1716 152.762 41.0068C153.508 40.8419 154.297 40.8419 155.148 40.9894V43.4189C154.237 43.2454 153.421 43.2454 152.701 43.4189C151.981 43.5924 151.356 43.9135 150.835 44.3907C150.315 44.8679 149.916 45.4666 149.638 46.1868C149.36 46.907 149.213 47.7486 149.213 48.7031V57.1977H146.783V40.9894Z" fill="#1F252E"></path><path id="Vector_21" d="M169.629 40.9893H172.154L162.888 63.6791H160.553L163.313 56.9719L156.762 40.9893H159.417L164.606 54.0825L169.629 40.9893Z" fill="#1F252E"></path><path id="Vector_22" d="M171.001 57.3446C170.559 57.3446 170.186 57.1885 169.891 56.8848C169.596 56.5811 169.439 56.1993 169.439 55.7568C169.439 55.3143 169.587 54.9412 169.891 54.6288C170.186 54.3164 170.559 54.1689 171.001 54.1689C171.444 54.1689 171.791 54.3251 172.103 54.6288C172.416 54.9325 172.563 55.3143 172.563 55.7568C172.563 56.1993 172.407 56.5724 172.103 56.8848C171.8 57.1971 171.426 57.3446 171.001 57.3446Z" fill="#1F252E"></path><path id="Vector_23" d="M186.011 57.1975L185.82 54.2821C185.369 55.2799 184.701 56.0522 183.807 56.5988C182.922 57.1541 181.794 57.4231 180.432 57.4231C179.269 57.4231 178.272 57.2409 177.447 56.8678C176.623 56.5034 175.998 55.9741 175.547 55.2973C175.096 54.6205 174.879 53.8136 174.879 52.8851C174.879 51.5229 175.382 50.4036 176.406 49.5272C177.421 48.6509 178.888 48.1216 180.814 47.922L185.803 47.3667V46.0739C185.803 45.1628 185.465 44.434 184.796 43.8873C184.128 43.3407 183.217 43.063 182.072 43.063C180.927 43.063 180.016 43.3233 179.269 43.8439C178.523 44.3645 178.011 45.1107 177.734 46.0825L175.53 45.3016C175.964 43.8786 176.753 42.7593 177.916 41.9611C179.07 41.1628 180.484 40.7637 182.15 40.7637C184.076 40.7637 185.569 41.2582 186.636 42.2387C187.703 43.2192 188.241 44.5554 188.241 46.2387V57.1975H186.003H186.011ZM185.82 49.4491L180.796 50.0305C179.712 50.1606 178.896 50.4556 178.332 50.9242C177.768 51.3927 177.491 52.0001 177.491 52.755C177.491 53.5099 177.768 54.1173 178.315 54.5684C178.862 55.0196 179.66 55.2539 180.701 55.2539C181.89 55.2539 182.862 55.0196 183.616 54.5424C184.371 54.0652 184.927 53.4231 185.282 52.6162C185.638 51.8092 185.82 50.9242 185.82 49.9784V49.4578V49.4491Z" fill="#1F252E"></path><path id="Vector_24" d="M192.423 37.7529C191.929 37.7529 191.512 37.588 191.191 37.267C190.87 36.9459 190.705 36.5468 190.705 36.0696C190.705 35.5923 190.87 35.1585 191.191 34.8375C191.512 34.5164 191.929 34.3516 192.423 34.3516C192.874 34.3516 193.273 34.5164 193.603 34.8375C193.942 35.1585 194.106 35.575 194.106 36.0696C194.106 36.5641 193.942 36.9459 193.603 37.267C193.265 37.588 192.874 37.7529 192.423 37.7529ZM191.191 40.998H193.586V57.2062H191.191V40.998Z" fill="#1F252E"></path></g></g></g></svg>